<svg width="74" height="74" viewBox="0 0 74 74" fill="none" xmlns="http://www.w3.org/2000/svg">
<path fill-rule="evenodd" clip-rule="evenodd" d="M51.7195 34.6772C51.7482 34.6282 51.7907 34.5596 51.8316 34.5076C52.213 34.0239 52.9354 33.9297 53.4963 34.2873C54.3577 34.8367 54.591 35.7174 54.4477 36.6596C54.3022 37.6167 53.9978 38.5649 53.6447 39.4682C53.3407 40.2465 53.0714 41.0296 52.8646 41.8257C52.7612 41.6547 52.5769 41.5449 52.3715 41.5449C51.8356 41.5449 51.356 41.5304 50.8778 41.5479C48.732 41.6254 46.5866 41.7626 44.4404 41.7845C40.5461 41.8246 36.6508 41.7975 32.7561 41.7994C32.369 41.7997 31.9604 41.7474 31.6012 41.8524L31.5675 41.8628C31.6869 41.457 31.8207 41.0533 31.9637 40.6505C33.2775 36.9445 32.0247 33.6974 28.6278 31.8552C27.0956 31.0242 25.4614 30.5564 23.7332 30.4062C23.259 30.365 22.775 30.3079 22.3225 30.1666C21.2754 29.8397 20.5955 29.1516 20.4387 28.0042C20.1677 26.0188 20.6637 24.1969 21.6517 22.5131C23.218 19.8436 25.5615 18.1635 28.4148 17.1968C31.7874 16.0542 35.2564 16.0008 38.7327 16.4485C39.9895 16.6107 41.2725 16.9189 42.4347 17.4231C45.6544 18.819 46.8035 22.2204 45.1886 25.3967C44.6701 26.4161 43.9847 27.3476 43.3563 28.3062C42.6937 29.317 41.9844 30.296 41.3338 31.3143C39.9805 33.4333 39.8742 35.576 41.3113 37.7232C41.5102 38.0203 41.6303 38.3794 41.8541 38.6506C42.1168 38.9693 42.4695 39.276 42.8414 39.4137C43.271 39.5732 43.7467 39.6066 44.4045 39.7257C44.6204 39.765 44.8392 39.6763 44.9705 39.4968C45.1018 39.3172 45.1229 39.0772 45.0246 38.8765C44.6766 38.1643 44.4538 37.5863 44.1298 37.0769C43.1846 35.5912 43.3145 34.1726 44.3366 32.7982C45.1465 31.709 45.9966 30.6514 46.7988 29.5567C47.3474 28.8084 47.9015 28.0528 48.3481 27.24C50.3734 23.5522 49.5219 19.4983 46.2295 16.9534C45.0039 16.0056 43.6284 15.3687 42.1673 14.919C39.5883 14.1255 36.9356 13.9226 34.2655 14.0246C30.889 14.1537 27.6043 14.7729 24.5605 16.3591C17.6282 19.972 15.8453 26.3282 17.6685 33.1554C18.2886 35.4781 19.6898 37.3062 21.8135 38.461C22.1981 38.6703 22.6444 38.7634 23.2862 38.9822C23.4938 39.0531 23.7227 38.9982 23.878 38.8409C24.0337 38.6832 24.0892 38.4499 24.0217 38.237C23.7884 37.4991 23.6157 37.0165 23.484 36.5224C23.3279 35.937 23.1258 35.3505 23.0765 34.7521C23.046 34.3852 23.1077 34.0862 23.2964 33.9C23.4836 33.7152 23.7735 33.664 24.1254 33.71C25.5488 33.8952 26.8481 34.4223 27.9511 35.3928C28.831 36.167 29.2062 37.1615 29.0295 38.313C28.892 39.2108 28.6162 40.0922 28.3394 40.9599C27.9464 42.1911 27.4312 43.3838 27.0764 44.6254C26.6529 46.1074 26.514 47.5768 27.0034 49.0318C25.9436 48.5966 24.8682 48.1555 23.7441 47.694C23.5765 47.6254 23.3867 47.6403 23.2314 47.7348C23.0761 47.8291 22.9727 47.9919 22.9517 48.1756C22.6284 50.9919 22.1803 53.6343 22.0417 56.276C22.0276 56.5476 22.1955 56.7943 22.4499 56.8748C22.9292 57.0261 23.2561 56.9682 23.4912 56.8488C23.8301 56.6763 24.0235 56.3176 24.157 55.9043C24.5296 54.7536 24.9034 53.6028 25.2858 52.455C25.4124 52.0748 25.5481 51.6979 25.6965 51.2861C26.4341 51.6589 27.1406 52.0162 27.8739 52.3872C27.6133 54.5655 27.3568 56.7093 27.1032 58.8294C27.0727 59.0854 27.2077 59.3324 27.437 59.4404C27.8993 59.6574 28.2606 59.6681 28.5368 59.5709C28.8477 59.4611 29.1064 59.2096 29.2708 58.753C29.5131 58.0804 29.7758 57.4164 30.0327 56.7494C30.5929 55.2941 31.1546 53.8395 31.7152 52.3868C33.7721 52.4528 35.7825 52.5174 37.7915 52.5819C37.7948 53.0297 37.7469 53.4656 37.7088 53.8929C37.6471 54.5818 37.6094 55.2507 37.7527 55.9102C37.7962 56.1094 37.9366 56.2719 38.125 56.3402C38.5447 56.4927 38.8448 56.4537 39.0654 56.3535C39.3876 56.2074 39.5995 55.8776 39.7203 55.4317C39.9602 54.5454 40.2588 53.6729 40.4569 52.7774C40.4899 52.6283 40.5182 52.5159 40.5995 52.4524C40.6905 52.3812 40.8197 52.376 40.9837 52.3712C42.6959 52.3208 44.4067 52.2139 46.1171 52.1097C47.3543 52.0344 48.5905 51.9349 49.8705 51.84C50.1064 52.3901 50.3368 52.9184 50.5505 53.4533C51.1818 55.0329 51.8023 56.6166 52.4245 58.1999C52.5983 58.642 52.8294 59.0371 53.1912 59.1944C53.4564 59.3098 53.8214 59.3421 54.3359 59.0883C54.554 58.9807 54.6839 58.7463 54.6617 58.5C54.6171 58.001 54.5899 57.4709 54.5184 56.9471C54.2731 55.1431 54.0079 53.342 53.7619 51.538C53.7474 51.4301 53.7289 51.3236 53.7209 51.219C53.714 51.1251 53.7195 51.0316 53.8189 50.9489C55.1563 49.8371 55.7027 48.3184 55.7887 46.6071C55.8268 45.8451 55.8206 45.0813 55.8431 44.3186C55.8907 42.7268 56.4367 41.2689 57.0183 39.8203C57.5985 38.375 57.9036 36.8788 57.7451 35.3082C57.5463 33.3391 56.6247 31.8474 54.8718 30.9615C52.7649 29.8965 50.0592 30.6863 48.9138 32.6713C48.388 33.5817 48.1569 34.5596 48.6083 35.6012C48.9602 36.4125 49.5411 36.9749 50.4456 37.0109C51.4061 37.0488 52.0069 36.5123 52.311 35.6098C52.4035 35.3353 52.2881 35.0329 52.0388 34.8949C51.914 34.8259 51.7878 34.7309 51.7195 34.6772ZM52.4412 44.6937C52.1767 44.8183 51.8077 44.8984 51.2903 44.9311C45.0866 45.3206 38.8771 45.4942 32.6614 45.3651C32.504 45.3618 32.3469 45.3451 32.1897 45.3343C31.7028 45.3006 31.3179 45.1722 31.0301 44.9789C31.0258 45.1281 31.0251 45.2779 31.028 45.4285C31.0349 45.7728 31.0762 46.12 31.1386 46.4587C31.3578 47.6492 32.0221 48.4341 33.2053 48.6237C34.4248 48.8192 35.6595 48.9809 36.8917 49.0199C40.6524 49.1379 44.4107 49.0388 48.1533 48.6048C48.8971 48.5187 49.6412 48.3748 50.3658 48.1808C51.0109 48.0079 51.4808 47.7682 51.8015 47.388C52.1241 47.0059 52.2892 46.4917 52.373 45.8169C52.4024 45.581 52.4412 45.3425 52.4383 45.1058C52.4365 44.9678 52.4376 44.8302 52.4412 44.6937Z" fill="black"/>
<circle cx="37" cy="37" r="35.5" stroke="black" stroke-width="3"/>
</svg>
