<?xml version="1.0" encoding="UTF-8" standalone="no"?><!DOCTYPE svg PUBLIC "-//W3C//DTD SVG 1.1//EN" "http://www.w3.org/Graphics/SVG/1.1/DTD/svg11.dtd"><svg width="100%" height="100%" viewBox="0 0 511 511" version="1.1" xmlns="http://www.w3.org/2000/svg" xmlns:xlink="http://www.w3.org/1999/xlink" xml:space="preserve" xmlns:serif="http://www.serif.com/" style="fill-rule:evenodd;clip-rule:evenodd;stroke-linejoin:round;stroke-miterlimit:2;"><path d="M469.238,168.237c-1.002,-22.508 -4.68,-37.982 -9.948,-51.391c-5.436,-14.233 -13.797,-26.975 -24.753,-37.568c-10.703,-10.758 -23.664,-19.118 -37.879,-24.412c-13.627,-5.214 -29.181,-8.854 -51.925,-9.846c-22.913,-1.077 -30.188,-1.326 -88.301,-1.326c-58.115,0 -65.389,0.249 -88.217,1.241c-22.743,0.992 -38.38,4.636 -51.925,9.847c-14.385,5.378 -27.261,13.654 -37.964,24.496c-10.871,10.593 -19.314,23.419 -24.668,37.488c-5.268,13.489 -8.946,28.879 -9.949,51.387c-1.087,22.676 -1.339,29.875 -1.339,87.388c0,57.514 0.252,64.713 1.254,87.304c1.003,22.509 4.684,37.982 9.952,51.391c5.436,14.233 13.879,26.975 24.75,37.568c10.703,10.759 23.664,19.117 37.879,24.413c13.63,5.214 29.181,8.854 51.928,9.846c22.825,0.995 30.102,1.241 88.217,1.241c58.114,-0 65.388,-0.246 88.217,-1.241c22.743,-0.992 38.378,-4.632 51.924,-9.846c28.767,-11.007 51.51,-33.515 62.632,-61.981c5.265,-13.489 8.946,-28.882 9.949,-51.391c1.002,-22.591 1.255,-29.79 1.255,-87.304c-0,-57.513 -0.086,-64.712 -1.089,-87.304Zm-38.546,172.953c-0.92,20.689 -4.432,31.86 -7.358,39.308c-7.193,18.454 -21.992,33.101 -40.64,40.219c-7.525,2.896 -18.896,6.371 -39.718,7.28c-22.577,0.995 -29.348,1.241 -86.46,1.241c-57.111,-0 -63.968,-0.246 -86.463,-1.241c-20.904,-0.909 -32.192,-4.384 -39.718,-7.28c-9.279,-3.394 -17.726,-8.773 -24.582,-15.807c-7.108,-6.869 -12.542,-15.144 -15.973,-24.328c-2.926,-7.448 -6.438,-18.703 -7.355,-39.308c-1.006,-22.343 -1.255,-29.048 -1.255,-85.568c0,-56.521 0.249,-63.306 1.255,-85.565c0.917,-20.688 4.429,-31.86 7.355,-39.307c3.431,-9.187 8.865,-17.543 16.058,-24.332c6.938,-7.034 15.299,-12.413 24.582,-15.804c7.525,-2.896 18.899,-6.371 39.719,-7.282c22.576,-0.993 29.351,-1.242 86.459,-1.242c57.196,0 63.968,0.249 86.463,1.242c20.904,0.911 32.192,4.386 39.718,7.282c9.28,3.391 17.726,8.77 24.582,15.804c7.108,6.869 12.543,15.145 15.973,24.332c2.926,7.447 6.438,18.7 7.358,39.307c1.004,22.344 1.255,29.044 1.255,85.565c0,56.52 -0.251,63.141 -1.255,85.484Zm-174.26,-194.469c-60.705,0 -109.958,48.74 -109.958,108.82c0,60.08 49.253,108.82 109.958,108.82c60.707,0 109.956,-48.74 109.956,-108.82c0,-60.08 -49.249,-108.82 -109.956,-108.82Zm-0,179.409c-39.382,0 -71.327,-31.611 -71.327,-70.589c0,-38.978 31.945,-70.589 71.327,-70.589c39.384,0 71.326,31.611 71.326,70.589c-0,38.978 -31.942,70.589 -71.326,70.589Zm139.978,-183.711c-0,14.029 -11.494,25.404 -25.674,25.404c-14.176,0 -25.67,-11.375 -25.67,-25.404c0,-14.032 11.494,-25.404 25.67,-25.404c14.18,-0 25.674,11.372 25.674,25.404Z" style="fill:#2588c9;fill-rule:nonzero;"/></svg>