<?xml version="1.0" encoding="UTF-8" standalone="no"?><!DOCTYPE svg PUBLIC "-//W3C//DTD SVG 1.1//EN" "http://www.w3.org/Graphics/SVG/1.1/DTD/svg11.dtd"><svg width="100%" height="100%" viewBox="0 0 512 512" version="1.1" xmlns="http://www.w3.org/2000/svg" xmlns:xlink="http://www.w3.org/1999/xlink" xml:space="preserve" xmlns:serif="http://www.serif.com/" style="fill-rule:evenodd;clip-rule:evenodd;stroke-linejoin:round;stroke-miterlimit:2;"><path d="M485.18,21.635c-0.011,0.004 -0.022,0.007 -0.034,0.011l-471.576,159.482c-16.783,5.675 -18.407,28.853 -2.583,36.815l145.962,73.447l0,150.087c0,17.041 19.885,26.126 32.799,15.368l53.712,-44.75l48.195,70.674c8.922,13.087 28.737,11.069 34.918,-3.425l183.768,-431.037c6.599,-15.465 -7.45,-32.383 -25.161,-26.672Zm-310.374,233.959l-103.124,-51.891l310.063,-104.859l-206.939,156.75Zm22.141,143.189l0,-54.896l23.872,35.007l-23.872,19.889Zm107.164,31.257c-1.524,-2.234 -99.595,-146.048 -99.919,-146.524l239.842,-181.673l-139.923,328.197Z" style="fill:#2588c9;fill-rule:nonzero;"/></svg>