<?xml version="1.0" encoding="UTF-8" standalone="no"?><!DOCTYPE svg PUBLIC "-//W3C//DTD SVG 1.1//EN" "http://www.w3.org/Graphics/SVG/1.1/DTD/svg11.dtd"><svg width="100%" height="100%" viewBox="0 0 511 511" version="1.1" xmlns="http://www.w3.org/2000/svg" xmlns:xlink="http://www.w3.org/1999/xlink" xml:space="preserve" xmlns:serif="http://www.serif.com/" style="fill-rule:evenodd;clip-rule:evenodd;stroke-linejoin:round;stroke-miterlimit:2;"><path d="M142.633,0.824c4.072,-0.886 8.214,-1.451 12.398,-1.69l0.007,-0l0.005,-0.001c0.496,-0.028 0.992,-0.052 1.489,-0.071l0.035,-0.001l0.056,-0.002l0.197,-0.008l0.194,-0.006l0.065,-0.002l0.043,-0.002l0.101,-0.003l0.335,-0.009l0.033,-0.001l0.008,0c0.159,-0.004 0.319,-0.008 0.479,-0.011l0.026,0l0.081,-0.002l0.25,-0.004l0.113,-0.001l0.07,-0.002l0.082,0l0.139,-0.002l0.198,-0.001l0.096,-0.001l0.046,-0.001c0.156,-0.001 0.313,-0.001 0.469,-0.001l193.575,0l0.405,0.001l0.064,0l0.046,0.001l0.097,0.001l0.197,0.001l0.139,0.002l0.082,0l0.07,0.002l0.113,0.001l0.25,0.004l0.081,0.002l0.026,0c0.16,0.003 0.32,0.007 0.48,0.011l0.375,0.01l0.102,0.003l0.042,0.002l0.066,0.002l0.193,0.006l0.197,0.008l0.056,0.002l0.036,0.001c0.496,0.019 0.992,0.043 1.488,0.071l0.012,0.001c4.641,0.265 9.232,0.931 13.733,1.992c15.75,1.849 30.514,8.945 41.84,20.27c13.288,13.289 20.754,31.311 20.754,50.104l-0,368c-0,18.793 -7.466,36.815 -20.754,50.104c-13.288,13.288 -31.311,20.753 -50.104,20.753l-215.618,0c-18.793,0 -36.816,-7.465 -50.104,-20.753c-13.288,-13.289 -20.754,-31.311 -20.754,-50.104l-0,-368c-0,-18.793 7.466,-36.815 20.754,-50.104c12.091,-12.091 28.102,-19.361 45.046,-20.572Zm210.59,38.092l-193.575,0l-0.355,0.002l-0.096,0.001l-0.327,0.005l-0.136,0.003l-0.184,0.004c-21.502,0.584 -38.816,18.255 -38.816,39.895l-0,10.815l0.004,56.444l-0,283.973c-0,22.007 17.902,39.909 39.91,39.91l193.575,0c22.008,-0.001 39.91,-17.903 39.91,-39.91l-0,-283.973l0.004,-56.444l-0,-10.815c-0,-21.64 -17.314,-39.311 -38.816,-39.895l-0.183,-0.004l-0.136,-0.003l-0.328,-0.005l-0.096,-0.001l-0.355,-0.002Zm-97.045,400.239c-10.903,-0.137 -19.699,-9.016 -19.699,-19.951c-0,-11.025 8.935,-19.957 19.957,-19.957c11.022,0 19.957,8.932 19.957,19.957c-0,10.935 -8.797,19.814 -19.699,19.951l-0.258,0.002l-0.258,-0.002Zm20.215,-329.276l-39.914,-0c-11.022,-0 -19.957,-8.932 -19.957,-19.953c-0,-11.022 8.935,-19.957 19.957,-19.957l39.914,-0c11.022,-0 19.957,8.936 19.957,19.957c-0,11.021 -8.935,19.952 -19.957,19.953Z" style="fill:#2588c9;fill-rule:nonzero;"/></svg>